<svg width="100" height="98" viewBox="0 0 100 98" fill="none" xmlns="http://www.w3.org/2000/svg">
<g clip-path="url(#clip0_224_24)">
<path fill-rule="evenodd" clip-rule="evenodd" d="M43.7356 0.111728C35.5218 1.61103 32.9906 2.35982 28.2027 4.70619C26.9865 5.30239 25.7795 5.78993 25.5211 5.78993C25.2622 5.78993 25.0505 5.94564 25.0505 6.13595C25.0505 6.32626 24.8169 6.48197 24.5315 6.48197C24.246 6.48197 24.0124 6.63768 24.0124 6.82799C24.0124 7.0183 23.8083 7.17401 23.5588 7.17401C23.309 7.17401 22.7706 7.48543 22.3619 7.86606C21.9536 8.24668 21.4571 8.5581 21.2588 8.5581C21.0605 8.5581 20.8982 8.71381 20.8982 8.90412C20.8982 9.09443 20.6647 9.25014 20.3792 9.25014C20.0937 9.25014 19.8602 9.40585 19.8602 9.59616C19.8602 9.78647 19.6266 9.94218 19.3411 9.94218C19.0557 9.94218 18.8221 10.0979 18.8221 10.2882C18.8221 10.4785 18.6647 10.6342 18.4719 10.6342C18.1273 10.6342 10.8636 17.729 10.8636 18.0657C10.8636 18.2415 10.0083 19.3335 9.22003 20.1636C8.98197 20.4145 8.78751 20.7861 8.78751 20.9903C8.78751 21.1941 8.6318 21.3609 8.44149 21.3609C8.25118 21.3609 8.09547 21.5944 8.09547 21.8799C8.09547 22.1654 7.93976 22.3989 7.74945 22.3989C7.55914 22.3989 7.40343 22.6325 7.40343 22.918C7.40343 23.2034 7.28682 23.4384 7.14391 23.4398C7.001 23.4411 6.70654 23.7917 6.48889 24.2183C1.62731 33.7591 0.0217709 39.7301 0.000317661 48.3505C-0.0131772 53.7509 0.400664 56.8696 1.74496 61.4993C2.73596 64.9125 2.87575 65.2958 3.88439 67.3817C4.29824 68.2381 4.63664 69.1336 4.6363 69.3713C4.63561 69.6093 4.79097 69.8038 4.98128 69.8038C5.17159 69.8038 5.3273 70.1152 5.3273 70.4958C5.3273 70.8765 5.45394 71.1879 5.60862 71.1879C5.76363 71.1879 6.10412 71.7329 6.36536 72.399C6.62661 73.0651 6.96709 73.61 7.12211 73.61C7.27678 73.61 7.40343 73.8436 7.40343 74.1291C7.40343 74.4145 7.55914 74.6481 7.74945 74.6481C7.93976 74.6481 8.09547 74.8817 8.09547 75.1671C8.09547 75.4526 8.25118 75.6862 8.44149 75.6862C8.6318 75.6862 8.78751 75.8855 8.78751 76.1287C8.78751 76.3723 9.09893 76.7958 9.47955 77.0702C9.86017 77.3446 10.1716 77.7682 10.1716 78.0118C10.1716 78.255 10.3273 78.4543 10.5176 78.4543C10.7079 78.4543 10.8636 78.6156 10.8636 78.8125C10.8636 79.3163 17.5238 85.874 18.8034 86.6298C19.3847 86.973 19.8602 87.3761 19.8602 87.5256C19.8602 87.6747 20.0937 87.7969 20.3792 87.7969C20.6647 87.7969 20.8982 87.9526 20.8982 88.1429C20.8982 88.3332 21.119 88.4889 21.3885 88.4889C21.6581 88.4889 21.9304 88.6055 21.9941 88.7484C22.5834 90.0744 34.164 95.0976 38.2858 95.8152C39.19 95.9727 40.7471 96.2657 41.746 96.4668C45.0232 97.1256 53.6225 97.2315 57.0574 96.655C63.5779 95.5609 66.2751 94.7758 71.0713 92.5758C73.7232 91.3592 78.592 88.6436 79.0298 88.137C79.1249 88.0266 79.7477 87.5574 80.4138 87.0938C81.0799 86.6305 82.1083 85.7817 82.6993 85.2076C83.2903 84.6332 84.1291 83.9301 84.5637 83.6446C85.5855 82.9734 86.9882 81.6083 86.9882 81.2855C86.9882 81.1471 87.8446 80.1135 88.8913 78.9889C89.9381 77.8644 90.7945 76.8104 90.7945 76.6467C90.7945 76.483 91.0855 76.0367 91.4415 75.655C92.4751 74.5453 95.5768 68.7374 96.718 65.7751C100.091 57.0187 100.886 46.9588 98.8889 38.3159C98.6028 37.0789 98.2443 35.5218 98.092 34.8557C97.1976 30.9446 91.627 20.7052 89.0076 18.1571C88.4678 17.6321 88.0263 17.128 88.0263 17.0366C88.0263 16.502 83.6875 12.0183 83.1702 12.0183C82.9488 12.0183 82.3311 11.5512 81.7979 10.9802C81.2647 10.4093 80.6571 9.94218 80.4481 9.94218C80.2388 9.94218 80.0678 9.78647 80.0678 9.59616C80.0678 9.40585 79.9055 9.25014 79.7073 9.25014C79.509 9.25014 79.0125 8.93872 78.6042 8.5581C78.1955 8.17747 77.6571 7.86606 77.4073 7.86606C77.1578 7.86606 76.9536 7.71035 76.9536 7.52003C76.9536 7.32972 76.7332 7.17401 76.4633 7.17401C76.1938 7.17401 75.9215 7.05567 75.8578 6.91138C75.7522 6.6709 70.4498 3.99547 68.8221 3.36121C66.5405 2.47228 63.1882 1.45671 60.1716 0.74045C58.1367 0.257403 45.5709 -0.223566 43.7356 0.111728ZM58.0955 2.98266C61.6069 3.54495 65.5284 4.63353 67.0007 5.45498C67.3311 5.63907 67.9152 5.78993 68.2983 5.78993C68.6817 5.78993 68.9952 5.94564 68.9952 6.13595C68.9952 6.32626 69.3066 6.48197 69.6872 6.48197C70.0678 6.48197 70.3792 6.63768 70.3792 6.82799C70.3792 7.0183 70.5817 7.17401 70.8294 7.17401C71.4657 7.17401 73.1415 7.98785 73.1446 8.29858C73.146 8.44114 73.381 8.5581 73.6664 8.5581C73.9519 8.5581 74.1855 8.71381 74.1855 8.90412C74.1855 9.09443 74.4969 9.25014 74.8775 9.25014C75.2581 9.25014 75.5695 9.40585 75.5695 9.59616C75.5695 9.78647 75.8031 9.94218 76.0886 9.94218C76.374 9.94218 76.6076 10.0979 76.6076 10.2882C76.6076 10.4785 76.8412 10.6342 77.1266 10.6342C77.4121 10.6342 77.6457 10.7636 77.6457 10.9218C77.6457 11.0799 78.072 11.4304 78.5931 11.7003C79.1142 11.9702 80.1927 12.8142 80.99 13.5754C81.7872 14.3366 82.9135 15.3488 83.4924 15.8245C84.0716 16.3003 84.5502 16.8103 84.5557 16.9581C84.5616 17.1058 85.228 17.9 86.0367 18.7228C88.0422 20.7626 89.3965 22.4847 89.4041 23.0045C89.4076 23.2425 89.5661 23.437 89.7564 23.437C89.9467 23.437 90.1024 23.6411 90.1024 23.8906C90.1024 24.1404 90.3796 24.6463 90.718 25.0152C91.3526 25.7065 92.8298 28.62 94.3913 32.2605C97.8882 40.4125 98.2758 52.8875 95.3183 62.1014C94.2817 65.3311 92.4457 69.3578 91.0675 71.4232C90.5367 72.2187 90.1024 73.0131 90.1024 73.1886C90.1024 73.364 89.6353 73.9962 89.0644 74.5938C88.4934 75.191 88.0263 75.8325 88.0263 76.0187C88.0263 76.4882 79.4453 85.0287 78.9737 85.0287C78.7637 85.0287 78.3384 85.3014 78.0287 85.6343C77.7187 85.9671 77.1166 86.4346 76.6903 86.6723C76.2644 86.9104 75.5654 87.2997 75.137 87.5374C74.7086 87.7754 74.2806 88.0547 74.1855 88.1585C73.9924 88.3689 69.4907 90.5571 67.6111 91.3543C65.6789 92.1737 64.455 92.5619 62.4208 93.0007C61.374 93.2263 60.1723 93.5436 59.7505 93.7055C59.3287 93.8675 56.9519 94.1903 54.4692 94.4228C45.3972 95.2727 36.0149 93.4886 28.1647 89.4215C26.3567 88.4848 24.5283 87.5415 24.1017 87.3253C23.6751 87.109 23.3245 86.8152 23.3231 86.6723C23.3218 86.5294 23.0868 86.4128 22.8013 86.4128C22.5159 86.4128 22.2823 86.2571 22.2823 86.0668C22.2823 85.8765 22.1058 85.7208 21.8903 85.7208C21.6747 85.7208 21.2467 85.4408 20.9387 85.099C20.6311 84.7567 19.8342 84.0965 19.1681 83.6318C17.7529 82.6439 13.6318 78.5945 13.6318 78.191C13.6318 78.0394 13.3204 77.6907 12.9398 77.4163C12.5591 77.1419 12.2477 76.7526 12.2477 76.5512C12.2477 76.3498 11.9363 75.9606 11.5557 75.6862C11.1751 75.4118 10.8636 74.9675 10.8636 74.699C10.8636 74.4301 10.5792 73.9585 10.2318 73.6505C9.88439 73.3429 9.3792 72.5848 9.10931 71.9664C8.83941 71.3481 8.501 70.8419 8.35706 70.8419C8.21311 70.8419 8.09547 70.5432 8.09547 70.1785C8.09547 69.8138 7.97886 69.4637 7.83595 69.4C6.88578 68.9779 3.91761 60.4298 3.1017 55.7657C2.0979 50.027 2.55603 41.317 4.09374 36.9007C4.38612 36.0616 4.6273 35.0246 4.63007 34.5962C4.63284 34.1678 4.79097 33.8176 4.98128 33.8176C5.17159 33.8176 5.3273 33.5041 5.3273 33.1207C5.3273 32.7377 5.45914 32.1536 5.62038 31.8231C5.78163 31.4927 6.44356 30.1325 7.09097 28.8003C7.73872 27.4681 8.38543 26.3263 8.52799 26.2629C8.6709 26.1993 8.78751 25.8491 8.78751 25.4844C8.78751 25.1193 8.94322 24.8211 9.13353 24.8211C9.32384 24.8211 9.47955 24.5875 9.47955 24.302C9.47955 24.0166 9.63526 23.783 9.82557 23.783C10.0159 23.783 10.1716 23.5494 10.1716 23.264C10.1716 22.9785 10.3273 22.7449 10.5176 22.7449C10.7079 22.7449 10.8636 22.5456 10.8636 22.3024C10.8636 22.0588 11.1751 21.6353 11.5557 21.3609C11.9363 21.0865 12.2477 20.6972 12.2477 20.4958C12.2477 20.2944 12.5591 19.9052 12.9398 19.6308C13.3204 19.3564 13.6318 19.0031 13.6318 18.8456C13.6318 18.3176 19.5744 12.7103 20.1339 12.7103C20.2799 12.7103 20.6238 12.3989 20.8982 12.0183C21.1726 11.6377 21.5962 11.3263 21.8398 11.3263C22.083 11.3263 22.2823 11.1706 22.2823 10.9802C22.2823 10.7899 22.5159 10.6342 22.8013 10.6342C23.0868 10.6342 23.3204 10.4785 23.3204 10.2882C23.3204 10.0979 23.5539 9.94218 23.8394 9.94218C24.1249 9.94218 24.3584 9.78647 24.3584 9.59616C24.3584 9.40585 24.592 9.25014 24.8775 9.25014C25.1629 9.25014 25.3965 9.09443 25.3965 8.90412C25.3965 8.71381 25.6948 8.5581 26.0598 8.5581C26.4245 8.5581 26.7747 8.44114 26.8384 8.29858C26.9498 8.04772 29.5097 6.75221 31.2789 6.05187C31.7546 5.86329 32.4142 5.57159 32.7446 5.40343C33.0751 5.23526 33.6591 5.09789 34.0422 5.09789C34.4256 5.09789 34.7391 4.94218 34.7391 4.75187C34.7391 4.56156 35.2062 4.40585 35.7772 4.40585C36.3481 4.40585 36.8152 4.26571 36.8152 4.09478C36.8152 3.92349 37.4768 3.70031 38.2858 3.59893C39.0948 3.4972 41.0021 3.18405 42.5246 2.90273C45.5626 2.34148 54.374 2.38681 58.0955 2.98266Z" fill="#3D3C3B"/>
<path d="M30.8147 65.7439C30.5116 65.7439 30.3264 65.5924 30.259 65.2893L28.895 58.6713C28.895 58.6038 28.8613 58.5533 28.7939 58.5197C28.7603 58.4862 28.7097 58.4692 28.6424 58.4692H18.7406C18.6733 58.4692 18.6059 58.4862 18.5386 58.5197C18.5049 58.5533 18.488 58.6038 18.488 58.6713L17.124 65.2893C17.0904 65.5924 16.9051 65.7439 16.5683 65.7439H14.9012C14.7328 65.7439 14.5981 65.6934 14.497 65.5924C14.4297 65.4913 14.4129 65.3567 14.4465 65.1882L22.1254 30.8353C22.1928 30.5322 22.378 30.3806 22.6811 30.3806H24.7019C25.0387 30.3806 25.2239 30.5322 25.2576 30.8353L32.987 65.1882V65.2893C32.987 65.5924 32.8355 65.7439 32.5323 65.7439H30.8147ZM19.0438 56.0443C19.0438 56.1789 19.0943 56.2464 19.1953 56.2464H28.1372C28.2382 56.2464 28.2887 56.1789 28.2887 56.0443L23.7925 34.6747C23.7589 34.5737 23.7252 34.5232 23.6915 34.5232C23.6578 34.5232 23.6241 34.5737 23.5905 34.6747L19.0438 56.0443ZM38.0704 65.7439C37.7337 65.7439 37.5652 65.5754 37.5652 65.2388V30.8858C37.5652 30.549 37.7337 30.3806 38.0704 30.3806H39.7375C40.0746 30.3806 40.2427 30.549 40.2427 30.8858V63.1675C40.2427 63.3021 40.3102 63.3695 40.4448 63.3695H52.2662C52.6033 63.3695 52.7714 63.5381 52.7714 63.8747V65.2388C52.7714 65.5754 52.6033 65.7439 52.2662 65.7439H38.0704ZM57.6566 65.7439C57.3195 65.7439 57.1514 65.5754 57.1514 65.2388V30.8858C57.1514 30.549 57.3195 30.3806 57.6566 30.3806H65.0829C67.5749 30.3806 69.5451 31.2226 70.9936 32.9066C72.4417 34.5568 73.1659 36.8135 73.1659 39.6761V56.4484C73.1659 59.3111 72.4417 61.5844 70.9936 63.2685C69.5451 64.9187 67.5749 65.7439 65.0829 65.7439H57.6566ZM59.8289 63.1675C59.8289 63.3021 59.896 63.3695 60.031 63.3695H65.0829C66.733 63.336 68.0296 62.7128 68.9728 61.5003C69.9493 60.2543 70.4379 58.5533 70.4379 56.3979V39.7772C70.4379 37.5879 69.9493 35.8702 68.9728 34.6242C68.0296 33.3781 66.7161 32.755 65.0323 32.755H60.031C59.896 32.755 59.8289 32.8224 59.8289 32.9571V63.1675ZM81.0413 65.7439C80.7043 65.7439 80.5361 65.5754 80.5361 65.2388V30.8858C80.5361 30.549 80.7043 30.3806 81.0413 30.3806H82.7085C83.0451 30.3806 83.2137 30.549 83.2137 30.8858V65.2388C83.2137 65.5754 83.0451 65.7439 82.7085 65.7439H81.0413Z" fill="#2A2829"/>
</g>
<defs>
<clipPath id="clip0_224_24">
<rect width="100" height="97.2318" fill="white"/>
</clipPath>
</defs>
</svg>
