<svg width="220" height="214" viewBox="0 0 220 214" fill="none" xmlns="http://www.w3.org/2000/svg">
<g clip-path="url(#clip0_224_24)">
<path fill-rule="evenodd" clip-rule="evenodd" d="M96.2184 0.245802C78.148 3.54428 72.5794 5.19161 62.046 10.3536C59.3702 11.6653 56.715 12.7378 56.1464 12.7378C55.5769 12.7378 55.1111 13.0804 55.1111 13.4991C55.1111 13.9178 54.5972 14.2603 53.9692 14.2603C53.3412 14.2603 52.8273 14.6029 52.8273 15.0216C52.8273 15.4403 52.3782 15.7828 51.8293 15.7828C51.2797 15.7828 50.0952 16.468 49.1962 17.3053C48.2979 18.1427 47.2055 18.8278 46.7693 18.8278C46.3331 18.8278 45.9761 19.1704 45.9761 19.5891C45.9761 20.0077 45.4623 20.3503 44.8342 20.3503C44.2062 20.3503 43.6924 20.6929 43.6924 21.1116C43.6924 21.5302 43.1785 21.8728 42.5505 21.8728C41.9225 21.8728 41.4086 22.2154 41.4086 22.634C41.4086 23.0527 41.0623 23.3953 40.6383 23.3953C39.8801 23.3953 23.9 39.0039 23.9 39.7446C23.9 40.1313 22.0182 42.5338 20.2841 44.36C19.7603 44.9119 19.3325 45.7295 19.3325 46.1786C19.3325 46.627 18.99 46.9939 18.5713 46.9939C18.1526 46.9939 17.81 47.5077 17.81 48.1358C17.81 48.7638 17.4675 49.2776 17.0488 49.2776C16.6301 49.2776 16.2875 49.7915 16.2875 50.4195C16.2875 51.0475 16.031 51.5644 15.7166 51.5675C15.4022 51.5705 14.7544 52.3417 14.2756 53.2803C3.58008 74.2701 0.0478961 87.4062 0.000698853 106.371C-0.0289898 118.252 0.881462 125.113 3.8389 135.298C6.01911 142.807 6.32665 143.651 8.54567 148.24C9.45612 150.124 10.2006 152.094 10.1999 152.617C10.1983 153.141 10.5401 153.568 10.9588 153.568C11.3775 153.568 11.7201 154.253 11.7201 155.091C11.7201 155.928 11.9987 156.613 12.339 156.613C12.68 156.613 13.4291 157.812 14.0038 159.278C14.5785 160.743 15.3276 161.942 15.6686 161.942C16.0089 161.942 16.2875 162.456 16.2875 163.084C16.2875 163.712 16.6301 164.226 17.0488 164.226C17.4675 164.226 17.81 164.74 17.81 165.368C17.81 165.996 18.1526 166.51 18.5713 166.51C18.99 166.51 19.3325 166.948 19.3325 167.483C19.3325 168.019 20.0176 168.951 20.855 169.555C21.6924 170.158 22.3775 171.09 22.3775 171.626C22.3775 172.161 22.7201 172.6 23.1387 172.6C23.5574 172.6 23.9 172.954 23.9 173.387C23.9 174.496 38.5524 188.923 41.3675 190.585C42.6464 191.341 43.6924 192.227 43.6924 192.556C43.6924 192.884 44.2062 193.153 44.8342 193.153C45.4623 193.153 45.9761 193.496 45.9761 193.914C45.9761 194.333 46.4618 194.676 47.0548 194.676C47.6478 194.676 48.2469 194.932 48.387 195.247C49.6834 198.164 75.1608 209.215 84.2288 210.793C86.2179 211.14 89.6435 211.785 91.8412 212.227C99.051 213.676 117.969 213.909 125.526 212.641C139.871 210.234 145.805 208.507 156.357 203.667C162.191 200.99 172.902 195.016 173.865 193.901C174.075 193.659 175.445 192.626 176.91 191.606C178.376 190.587 180.638 188.72 181.938 187.457C183.239 186.193 185.084 184.646 186.04 184.018C188.288 182.541 191.374 179.538 191.374 178.828C191.374 178.524 193.258 176.25 195.561 173.776C197.864 171.302 199.748 168.983 199.748 168.623C199.748 168.263 200.388 167.281 201.171 166.441C203.445 164 210.269 151.222 212.78 144.705C220.199 125.441 221.949 103.309 217.556 84.295C216.926 81.5736 216.137 78.148 215.802 76.6826C213.835 68.0781 201.579 45.5513 195.817 39.9455C194.629 38.7907 193.658 37.6816 193.658 37.4806C193.658 36.3045 184.113 26.4403 182.975 26.4403C182.487 26.4403 181.129 25.4126 179.955 24.1565C178.782 22.9005 177.446 21.8728 176.986 21.8728C176.525 21.8728 176.149 21.5302 176.149 21.1116C176.149 20.6929 175.792 20.3503 175.356 20.3503C174.92 20.3503 173.827 19.6652 172.929 18.8278C172.03 17.9904 170.846 17.3053 170.296 17.3053C169.747 17.3053 169.298 16.9628 169.298 16.5441C169.298 16.1254 168.813 15.7828 168.219 15.7828C167.626 15.7828 167.027 15.5225 166.887 15.205C166.655 14.676 154.99 8.79003 151.409 7.39466C146.389 5.43902 139.014 3.20477 132.378 1.62899C127.901 0.566287 100.256 -0.491845 96.2184 0.245802ZM127.81 6.56185C135.535 7.79889 144.162 10.1938 147.402 12.001C148.129 12.4059 149.413 12.7378 150.256 12.7378C151.1 12.7378 151.789 13.0804 151.789 13.4991C151.789 13.9178 152.474 14.2603 153.312 14.2603C154.149 14.2603 154.834 14.6029 154.834 15.0216C154.834 15.4403 155.28 15.7828 155.825 15.7828C157.225 15.7828 160.911 17.5733 160.918 18.2569C160.921 18.5705 161.438 18.8278 162.066 18.8278C162.694 18.8278 163.208 19.1704 163.208 19.5891C163.208 20.0077 163.893 20.3503 164.731 20.3503C165.568 20.3503 166.253 20.6929 166.253 21.1116C166.253 21.5302 166.767 21.8728 167.395 21.8728C168.023 21.8728 168.537 22.2154 168.537 22.634C168.537 23.0527 169.051 23.3953 169.679 23.3953C170.307 23.3953 170.82 23.68 170.82 24.0279C170.82 24.3758 171.758 25.1469 172.905 25.7407C174.051 26.3345 176.424 28.1911 178.178 29.8659C179.932 31.5406 182.41 33.7673 183.683 34.814C184.958 35.8607 186.01 36.9828 186.023 37.3078C186.035 37.6329 187.502 39.3799 189.281 41.1902C193.693 45.6777 196.672 49.4664 196.689 50.6098C196.697 51.1336 197.045 51.5614 197.464 51.5614C197.883 51.5614 198.225 52.0105 198.225 52.5594C198.225 53.109 198.835 54.2219 199.58 55.0334C200.976 56.5544 204.225 62.9641 207.661 70.9731C215.354 88.9074 216.207 116.353 209.7 136.623C207.42 143.729 203.38 152.587 200.348 157.131C199.181 158.881 198.225 160.629 198.225 161.015C198.225 161.401 197.198 162.792 195.942 164.106C194.686 165.42 193.658 166.832 193.658 167.241C193.658 168.274 174.78 187.063 173.742 187.063C173.28 187.063 172.345 187.663 171.663 188.395C170.981 189.128 169.657 190.156 168.719 190.679C167.782 191.203 166.244 192.059 165.301 192.582C164.359 193.106 163.417 193.72 163.208 193.949C162.783 194.411 152.879 199.226 148.744 200.98C144.494 202.782 141.801 203.636 137.326 204.602C135.023 205.098 132.379 205.796 131.451 206.152C130.523 206.508 125.294 207.219 119.832 207.73C99.8739 209.6 79.2327 205.675 61.9623 196.727C57.9848 194.667 53.9623 192.591 53.0237 192.116C52.0851 191.64 51.314 190.993 51.3109 190.679C51.3079 190.365 50.791 190.108 50.163 190.108C49.5349 190.108 49.0211 189.766 49.0211 189.347C49.0211 188.928 48.6329 188.586 48.1586 188.586C47.6844 188.586 46.7427 187.97 46.0652 187.218C45.3884 186.465 43.6353 185.012 42.1699 183.99C39.0564 181.817 29.99 172.908 29.99 172.02C29.99 171.687 29.3048 170.919 28.4675 170.316C27.6301 169.712 26.945 168.856 26.945 168.413C26.945 167.97 26.2599 167.113 25.4225 166.51C24.5851 165.906 23.9 164.928 23.9 164.338C23.9 163.746 23.2742 162.709 22.51 162.031C21.7457 161.354 20.6342 159.687 20.0405 158.326C19.4467 156.966 18.7022 155.852 18.3855 155.852C18.0689 155.852 17.81 155.195 17.81 154.393C17.81 153.59 17.5535 152.82 17.2391 152.68C15.1487 151.751 8.61875 132.945 6.82374 122.685C4.61537 110.059 5.62326 90.8973 9.00622 81.1815C9.64947 79.3355 10.1801 77.054 10.1862 76.1116C10.1922 75.1691 10.5401 74.3987 10.9588 74.3987C11.3775 74.3987 11.7201 73.7091 11.7201 72.8656C11.7201 72.0229 12.0101 70.7379 12.3648 70.0109C12.7196 69.2839 14.1758 66.2915 15.6001 63.3607C17.0252 60.4299 18.448 57.9178 18.7616 57.7785C19.076 57.6384 19.3325 56.868 19.3325 56.0657C19.3325 55.2626 19.6751 54.6064 20.0938 54.6064C20.5125 54.6064 20.855 54.0925 20.855 53.4645C20.855 52.8365 21.1976 52.3226 21.6163 52.3226C22.0349 52.3226 22.3775 51.8088 22.3775 51.1808C22.3775 50.5527 22.7201 50.0389 23.1387 50.0389C23.5574 50.0389 23.9 49.6004 23.9 49.0653C23.9 48.5293 24.5851 47.5976 25.4225 46.9939C26.2599 46.3902 26.945 45.5338 26.945 45.0908C26.945 44.6477 27.6301 43.7913 28.4675 43.1877C29.3048 42.584 29.99 41.8068 29.99 41.4604C29.99 40.2987 43.0636 27.9628 44.2945 27.9628C44.6158 27.9628 45.3724 27.2776 45.9761 26.4403C46.5798 25.6029 47.5116 24.9178 48.0475 24.9178C48.5826 24.9178 49.0211 24.5752 49.0211 24.1565C49.0211 23.7378 49.5349 23.3953 50.163 23.3953C50.791 23.3953 51.3048 23.0527 51.3048 22.634C51.3048 22.2154 51.8187 21.8728 52.4467 21.8728C53.0747 21.8728 53.5886 21.5302 53.5886 21.1116C53.5886 20.6929 54.1024 20.3503 54.7304 20.3503C55.3585 20.3503 55.8723 20.0077 55.8723 19.5891C55.8723 19.1704 56.5285 18.8278 57.3316 18.8278C58.134 18.8278 58.9043 18.5705 59.0444 18.2569C59.2895 17.705 64.9212 14.8549 68.8135 13.3141C69.8602 12.8992 71.3111 12.2575 72.0381 11.8875C72.7651 11.5176 74.0501 11.2154 74.8928 11.2154C75.7363 11.2154 76.426 10.8728 76.426 10.4541C76.426 10.0354 77.4537 9.69286 78.7098 9.69286C79.9658 9.69286 80.9935 9.38456 80.9935 9.00851C80.9935 8.63169 82.449 8.14068 84.2288 7.91764C86.0086 7.69383 90.2046 7.0049 93.5541 6.38601C100.238 5.15127 119.623 5.25099 127.81 6.56185Z" fill="#3D3C3B"/>
<path d="M67.7931 144.637C67.1263 144.637 66.7188 144.303 66.5705 143.636L63.5697 129.077C63.5697 128.928 63.4956 128.817 63.3474 128.743C63.2734 128.67 63.1622 128.632 63.014 128.632H41.2302C41.082 128.632 40.9338 128.67 40.7856 128.743C40.7116 128.817 40.6745 128.928 40.6745 129.077L37.6737 143.636C37.5996 144.303 37.192 144.637 36.4511 144.637H32.7834C32.4129 144.637 32.1166 144.526 31.8943 144.303C31.7461 144.081 31.7091 143.785 31.7831 143.414L48.6767 67.8376C48.8249 67.1708 49.2324 66.8374 49.8993 66.8374H54.3449C55.0859 66.8374 55.4934 67.1708 55.5675 67.8376L72.5722 143.414V143.636C72.5722 144.303 72.2388 144.637 71.5719 144.637H67.7931ZM41.897 123.297C41.897 123.594 42.0082 123.742 42.2305 123.742H61.9026C62.1249 123.742 62.236 123.594 62.236 123.297L52.3444 76.2844C52.2703 76.0621 52.1962 75.951 52.1221 75.951C52.048 75.951 51.9739 76.0621 51.8998 76.2844L41.897 123.297ZM83.7557 144.637C83.015 144.637 82.6442 144.266 82.6442 143.525V67.9488C82.6442 67.2079 83.015 66.8374 83.7557 66.8374H87.4233C88.1648 66.8374 88.5348 67.2079 88.5348 67.9488V138.968C88.5348 139.265 88.6832 139.413 88.9793 139.413H114.987C115.728 139.413 116.098 139.784 116.098 140.524V143.525C116.098 144.266 115.728 144.637 114.987 144.637H83.7557ZM126.845 144.637C126.104 144.637 125.734 144.266 125.734 143.525V67.9488C125.734 67.2079 126.104 66.8374 126.845 66.8374H143.183C148.666 66.8374 153 68.6897 156.187 72.3945C159.372 76.0251 160.966 80.9897 160.966 87.2875V124.187C160.966 130.484 159.372 135.486 156.187 139.191C153 142.821 148.666 144.637 143.183 144.637H126.845ZM131.624 138.968C131.624 139.265 131.772 139.413 132.069 139.413H143.183C146.813 139.339 149.666 137.968 151.741 135.301C153.889 132.56 154.964 128.817 154.964 124.075V87.5098C154.964 82.6934 153.889 78.9145 151.741 76.1733C149.666 73.4318 146.776 72.061 143.072 72.061H132.069C131.772 72.061 131.624 72.2093 131.624 72.5056V138.968ZM178.292 144.637C177.55 144.637 177.18 144.266 177.18 143.525V67.9488C177.18 67.2079 177.55 66.8374 178.292 66.8374H181.959C182.7 66.8374 183.071 67.2079 183.071 67.9488V143.525C183.071 144.266 182.7 144.637 181.959 144.637H178.292Z" fill="#2A2829"/>
</g>
<defs>
<clipPath id="clip0_224_24">
<rect width="220" height="213.91" fill="white"/>
</clipPath>
</defs>
</svg>
